# xmcd
#
# Track frame offsets: 
#        150
#        14055
#        26303
#        38676
#        51551
#        64826
#        77909
#        90950
#        104602
#        117377
#        130383
#        143805
#        154891
#        165240
#        179756
#        193871
#        206586
#        219179
#        231447
#        241824
#        255267
#        267532
#        279411
#        290355
#        303913
#
# Disc length: 4229 seconds
#
# Revision: 0
# Processed by: cddbd v1.5.2PL0 Copyright (c) Steve Scherf et al.
# Submitted via: ExactAudioCopy v1.0b3
#
DISCID=6b108319
DTITLE=Various Artist - RCAカントリー&ウエスタン100 Disc 1 BVCM-38039-42
DYEAR=1900
DGENRE=Country
TTITLE0=キャトル・コール
TTITLE1=ユー・アー・マイ・サンシャイン
TTITLE2=ミュール・スキナー・ブルース
TTITLE3=桃の実の熟す時
TTITLE4=陽のあたる山すそで
TTITLE5=今宵、恋に泣く 
TTITLE6=あきらめきれないこの気持ち
TTITLE7=テネシー・ワルツ
TTITLE8=人生のまわり道
TTITLE9=クイックシルヴァー 
TTITLE10=カウボーイの恋人になりたいの
TTITLE11=サン・アントニオ・ローズ 
TTITLE12=窓辺の青い鳥
TTITLE13=ジミー・ロジャースがさよならを言った時
TTITLE14=わが心の母上
TTITLE15=君慕う宵
TTITLE16=こんな女に誰がした
TTITLE17=テネシー・セントラルNo.9 
TTITLE18=テネシー・ヨーデル・ポルカ
TTITLE19=コロンバス監獄のブルース
TTITLE20=大空に投縄をほおれば
TTITLE21=なつかしき南の海辺
TTITLE22=オクラホマ・ヒルズ
TTITLE23=モリー・ダーリン
TTITLE24=ハッピー・トレイルズ 
EXTD=
EXTT0=
EXTT1=
EXTT2=
EXTT3=
EXTT4=
EXTT5=
EXTT6=
EXTT7=
EXTT8=
EXTT9=
EXTT10=
EXTT11=
EXTT12=
EXTT13=
EXTT14=
EXTT15=
EXTT16=
EXTT17=
EXTT18=
EXTT19=
EXTT20=
EXTT21=
EXTT22=
EXTT23=
EXTT24=
PLAYORDER=
